<svg width="685" height="100" viewBox="0 0 685 100" fill="none" xmlns="http://www.w3.org/2000/svg">
<g clip-path="url(#clip0)">
<path d="M115.436 79C114.988 79 114.568 78.832 114.176 78.496C113.84 78.104 113.672 77.684 113.672 77.236C113.672 76.9 113.7 76.648 113.756 76.48L133.328 22.636C133.888 21.012 135.008 20.2 136.688 20.2H149.792C151.472 20.2 152.592 21.012 153.152 22.636L172.724 76.48C172.78 76.648 172.808 76.9 172.808 77.236C172.808 77.684 172.612 78.104 172.22 78.496C171.884 78.832 171.492 79 171.044 79H160.124C158.78 79 157.828 78.384 157.268 77.152L154.244 69.004H132.236L129.212 77.152C128.652 78.384 127.7 79 126.356 79H115.436ZM135.764 56.404H150.716L143.24 34.984L135.764 56.404ZM209.443 79.84C201.491 79.84 195.247 77.908 190.711 74.044C186.231 70.18 183.991 64.384 183.991 56.656V22.384C183.991 21.768 184.187 21.264 184.579 20.872C184.971 20.424 185.475 20.2 186.091 20.2H197.599C198.215 20.2 198.719 20.424 199.111 20.872C199.559 21.264 199.783 21.768 199.783 22.384V56.488C199.783 59.96 200.595 62.564 202.219 64.3C203.899 66.036 206.279 66.904 209.359 66.904C212.439 66.904 214.791 66.036 216.415 64.3C218.095 62.508 218.935 59.904 218.935 56.488V22.384C218.935 21.768 219.131 21.264 219.523 20.872C219.971 20.424 220.503 20.2 221.119 20.2H232.543C233.159 20.2 233.663 20.424 234.055 20.872C234.503 21.264 234.727 21.768 234.727 22.384V56.656C234.727 64.384 232.487 70.18 228.007 74.044C223.527 77.908 217.339 79.84 209.443 79.84ZM254.428 79C253.868 79 253.364 78.804 252.916 78.412C252.524 77.964 252.328 77.46 252.328 76.9V22.384C252.328 21.768 252.524 21.264 252.916 20.872C253.308 20.424 253.812 20.2 254.428 20.2H276.52C284.808 20.2 291.248 22.188 295.84 26.164C300.432 30.084 302.84 35.74 303.064 43.132C303.12 44.756 303.148 46.912 303.148 49.6C303.148 52.288 303.12 54.416 303.064 55.984C302.504 71.328 293.796 79 276.94 79H254.428ZM276.52 66.4C280.048 66.4 282.652 65.56 284.332 63.88C286.012 62.2 286.908 59.512 287.02 55.816C287.132 54.192 287.188 52.092 287.188 49.516C287.188 46.94 287.132 44.868 287.02 43.3C286.908 39.716 285.928 37.084 284.08 35.404C282.288 33.668 279.628 32.8 276.1 32.8H268.12V66.4H276.52ZM314.834 79C314.386 79 313.966 78.832 313.574 78.496C313.238 78.104 313.07 77.684 313.07 77.236C313.07 76.9 313.098 76.648 313.154 76.48L332.726 22.636C333.286 21.012 334.406 20.2 336.086 20.2H349.19C350.87 20.2 351.99 21.012 352.55 22.636L372.122 76.48C372.178 76.648 372.206 76.9 372.206 77.236C372.206 77.684 372.01 78.104 371.618 78.496C371.282 78.832 370.89 79 370.442 79H359.522C358.178 79 357.226 78.384 356.666 77.152L353.642 69.004H331.634L328.61 77.152C328.05 78.384 327.098 79 325.754 79H314.834ZM335.162 56.404H350.114L342.638 34.984L335.162 56.404ZM408.417 79.84C400.409 79.84 394.109 77.908 389.517 74.044C384.981 70.18 382.573 64.524 382.293 57.076C382.237 55.564 382.209 53.1 382.209 49.684C382.209 46.212 382.237 43.692 382.293 42.124C382.573 34.844 385.009 29.244 389.601 25.324C394.249 21.348 400.521 19.36 408.417 19.36C413.401 19.36 417.853 20.172 421.773 21.796C425.749 23.42 428.885 25.772 431.181 28.852C433.477 31.932 434.681 35.572 434.793 39.772C434.793 40.276 434.597 40.696 434.205 41.032C433.869 41.368 433.449 41.536 432.945 41.536H421.017C420.233 41.536 419.645 41.396 419.253 41.116C418.917 40.78 418.609 40.192 418.329 39.352C417.545 36.608 416.341 34.704 414.717 33.64C413.149 32.52 411.049 31.96 408.417 31.96C402.089 31.96 398.813 35.488 398.589 42.544C398.533 44.056 398.505 46.38 398.505 49.516C398.505 52.652 398.533 55.032 398.589 56.656C398.813 63.712 402.089 67.24 408.417 67.24C410.993 67.24 413.093 66.68 414.717 65.56C416.397 64.44 417.601 62.536 418.329 59.848C418.553 59.008 418.861 58.448 419.253 58.168C419.645 57.832 420.233 57.664 421.017 57.664H432.945C433.449 57.664 433.869 57.832 434.205 58.168C434.597 58.504 434.793 58.924 434.793 59.428C434.681 63.628 433.477 67.268 431.181 70.348C428.885 73.428 425.749 75.78 421.773 77.404C417.853 79.028 413.401 79.84 408.417 79.84ZM452.185 79C451.625 79 451.121 78.804 450.673 78.412C450.281 77.964 450.085 77.46 450.085 76.9V22.3C450.085 21.684 450.281 21.18 450.673 20.788C451.121 20.396 451.625 20.2 452.185 20.2H464.197C464.813 20.2 465.317 20.396 465.709 20.788C466.101 21.18 466.297 21.684 466.297 22.3V76.9C466.297 77.46 466.101 77.964 465.709 78.412C465.317 78.804 464.813 79 464.197 79H452.185ZM508.81 79.84C500.858 79.84 494.586 77.908 489.994 74.044C485.402 70.18 482.966 64.496 482.686 56.992C482.63 55.424 482.602 53.016 482.602 49.768C482.602 46.52 482.63 44.084 482.686 42.46C482.91 35.068 485.346 29.384 489.994 25.408C494.698 21.376 500.97 19.36 508.81 19.36C516.594 19.36 522.81 21.376 527.458 25.408C532.162 29.384 534.626 35.068 534.85 42.46C534.962 45.708 535.018 48.144 535.018 49.768C535.018 51.448 534.962 53.856 534.85 56.992C534.57 64.496 532.134 70.18 527.542 74.044C523.006 77.908 516.762 79.84 508.81 79.84ZM508.81 67.24C511.722 67.24 514.046 66.372 515.782 64.636C517.518 62.844 518.442 60.128 518.554 56.488C518.666 53.24 518.722 50.916 518.722 49.516C518.722 48.116 518.666 45.848 518.554 42.712C518.442 39.072 517.518 36.384 515.782 34.648C514.046 32.856 511.722 31.96 508.81 31.96C505.842 31.96 503.49 32.856 501.754 34.648C500.018 36.384 499.094 39.072 498.982 42.712C498.926 44.28 498.898 46.548 498.898 49.516C498.898 52.54 498.926 54.864 498.982 56.488C499.094 60.128 500.018 62.844 501.754 64.636C503.49 66.372 505.842 67.24 508.81 67.24ZM576.165 79.84C568.213 79.84 561.969 77.908 557.433 74.044C552.953 70.18 550.713 64.384 550.713 56.656V22.384C550.713 21.768 550.909 21.264 551.301 20.872C551.693 20.424 552.197 20.2 552.813 20.2H564.321C564.937 20.2 565.441 20.424 565.833 20.872C566.281 21.264 566.505 21.768 566.505 22.384V56.488C566.505 59.96 567.317 62.564 568.941 64.3C570.621 66.036 573.001 66.904 576.081 66.904C579.161 66.904 581.513 66.036 583.137 64.3C584.817 62.508 585.657 59.904 585.657 56.488V22.384C585.657 21.768 585.853 21.264 586.245 20.872C586.693 20.424 587.225 20.2 587.841 20.2H599.265C599.881 20.2 600.385 20.424 600.777 20.872C601.225 21.264 601.449 21.768 601.449 22.384V56.656C601.449 64.384 599.209 70.18 594.729 74.044C590.249 77.908 584.061 79.84 576.165 79.84ZM641.31 79.84C635.878 79.84 631.258 79.056 627.45 77.488C623.642 75.92 620.758 73.848 618.798 71.272C616.838 68.696 615.802 65.896 615.69 62.872C615.69 62.368 615.858 61.948 616.194 61.612C616.586 61.276 617.034 61.108 617.538 61.108H628.71C629.382 61.108 629.914 61.22 630.306 61.444C630.754 61.668 631.23 62.06 631.734 62.62C632.462 63.964 633.582 65.084 635.094 65.98C636.662 66.82 638.734 67.24 641.31 67.24C644.334 67.24 646.658 66.792 648.282 65.896C649.906 64.944 650.718 63.656 650.718 62.032C650.718 60.856 650.298 59.904 649.458 59.176C648.618 58.392 647.274 57.72 645.426 57.16C643.578 56.544 640.918 55.872 637.446 55.144C630.67 53.8 625.602 51.756 622.242 49.012C618.882 46.268 617.202 42.348 617.202 37.252C617.202 33.78 618.154 30.7 620.058 28.012C622.018 25.268 624.762 23.14 628.29 21.628C631.874 20.116 636.018 19.36 640.722 19.36C645.65 19.36 649.906 20.228 653.49 21.964C657.13 23.644 659.902 25.772 661.806 28.348C663.766 30.868 664.802 33.36 664.914 35.824C664.914 36.328 664.746 36.776 664.41 37.168C664.074 37.504 663.654 37.672 663.15 37.672H651.39C650.158 37.672 649.206 37.168 648.534 36.16C648.198 34.984 647.33 34.004 645.93 33.22C644.53 32.38 642.794 31.96 640.722 31.96C638.37 31.96 636.55 32.38 635.262 33.22C633.974 34.06 633.33 35.292 633.33 36.916C633.33 38.54 634.17 39.828 635.85 40.78C637.53 41.676 640.666 42.6 645.258 43.552C650.522 44.504 654.694 45.708 657.774 47.164C660.91 48.564 663.206 50.412 664.662 52.708C666.174 54.948 666.93 57.804 666.93 61.276C666.93 65.084 665.838 68.388 663.654 71.188C661.47 73.988 658.446 76.144 654.582 77.656C650.718 79.112 646.294 79.84 641.31 79.84Z" fill="black"/>
<path d="M50 79.1667V20.8334" stroke="black" stroke-width="12.33" stroke-linecap="round" stroke-linejoin="round"/>
<path d="M20.8334 50L50 20.8334L79.1667 50" stroke="black" stroke-width="12.33" stroke-linecap="round" stroke-linejoin="round"/>
</g>
<defs>
<clipPath id="clip0">
<rect width="685" height="100" fill="white"/>
</clipPath>
</defs>
</svg>
