<svg width="438" height="73" viewBox="0 0 438 73" fill="none" xmlns="http://www.w3.org/2000/svg">
<path d="M24.816 25.76L31.328 46.616H18.128L24.816 25.76ZM0.880005 68H19.36V62.808L13.288 61.752L16.368 52.16H33L36.168 62.192L30.096 63.072V68H58.52V63.072L53.768 62.544L35.992 10.624H25.432L7.83201 61.84L0.880005 62.808V68Z" fill="#3A4750"/>
<path d="M109.353 68.088V63.6L105.305 62.72V37.64L105.569 25.144L103.985 24.176L84.5371 27.696V31.216L88.7611 32.184L88.4091 56.912C86.5611 58.672 84.5371 59.992 82.7771 59.992C80.4891 59.992 78.9051 58.584 78.9051 54.008V37.64L79.3451 25.144L77.7611 24.176L57.7851 27.256V31.216L62.3611 32.272L62.0091 53.568C61.8331 65.184 67.1131 69.408 74.8571 69.408C80.4891 69.408 85.0651 66.68 88.5851 62.104L88.9371 69.056L109.353 68.088Z" fill="#3A4750"/>
<path d="M130.314 46.792C130.314 37.024 133.746 32.184 138.586 32.184C139.818 32.184 140.874 32.448 141.842 32.976V59.728C140.786 60.344 139.554 60.696 138.234 60.696C133.482 60.696 130.314 55.68 130.314 46.792ZM161.73 68V63.512L158.562 62.72V17.752L158.914 5.51999L157.418 4.55199L136.826 8.51199V12.472L142.458 13.352V27.784C139.906 25.232 136.826 23.736 132.162 23.736C122.57 23.736 112.538 32.272 112.538 46.968C112.538 61.928 120.282 69.408 129.962 69.408C134.802 69.408 138.85 67.824 142.282 64.304L143.074 69.056L161.73 68Z" fill="#3A4750"/>
<path d="M199.455 69.408C205.703 69.408 209.135 67.296 211.247 61.928L208.695 60.52C207.639 62.104 207.023 62.456 206.319 62.456C205.351 62.456 204.823 61.84 204.823 60.96V40.808C204.823 28.752 200.335 23.736 188.191 23.736C174.023 23.736 166.719 29.016 166.719 36.584C167.599 39.752 169.975 41.336 173.407 41.336C177.191 41.336 180.623 38.608 180.623 31.48V28.488C181.063 28.488 181.503 28.488 181.943 28.488C187.487 28.488 188.631 30.864 188.631 38.344V41.512C186.607 42.04 184.671 42.568 183.263 42.92C169.007 46.704 165.223 51.28 165.223 58.056C165.223 65.272 169.711 69.408 176.663 69.408C182.999 69.408 185.727 66.944 189.159 63.16C190.655 67.208 193.911 69.408 199.455 69.408ZM180.359 55.328C180.359 50.576 183.615 47.76 186.079 46.616C186.783 46.264 187.663 45.912 188.631 45.648V60.256C187.311 61.224 186.079 61.752 184.935 61.752C182.383 61.752 180.359 59.64 180.359 55.328Z" fill="#3A4750"/>
<path d="M239.675 28.488H240.027L240.203 32.184C240.555 39.928 244.075 42.216 247.771 42.216C251.291 42.216 253.315 40.632 254.459 37.112C254.019 29.896 247.507 23.736 237.651 23.736C223.483 23.736 212.483 32.096 212.483 46.704C212.483 62.016 223.307 69.408 235.275 69.408C243.635 69.408 250.235 66.24 254.019 59.112L250.587 55.768C248.123 58.144 245.483 59.904 241.611 59.904C234.571 59.904 230.083 54.536 230.083 44.768C230.083 32.624 235.627 28.488 239.675 28.488Z" fill="#3A4750"/>
<path d="M271.305 18.544C275.793 18.544 279.401 15.376 279.401 10.976C279.401 6.57599 275.793 3.40799 271.305 3.40799C266.817 3.40799 263.209 6.57599 263.209 10.976C263.209 15.376 266.817 18.544 271.305 18.544ZM283.625 63.512L279.929 62.72C279.841 58.496 279.841 53.216 279.841 49.52V37.816L280.105 24.704L278.521 23.736L258.105 29.808V33.416L262.857 34.208C263.033 37.728 263.121 40.456 263.121 45.296V49.52C263.121 53.128 263.121 58.32 263.033 62.632L259.073 63.512V68H283.625V63.512Z" fill="#3A4750"/>
<path d="M310.309 69.408C325.357 69.408 333.541 59.64 333.541 46.264C333.541 32.888 323.861 23.736 310.309 23.736C296.757 23.736 287.077 33.152 287.077 46.264C287.077 59.376 295.173 69.408 310.309 69.408ZM310.309 64.568C306.437 64.568 304.677 59.376 304.677 46.528C304.677 33.768 306.437 28.576 310.309 28.576C314.181 28.576 315.941 33.768 315.941 46.528C315.941 59.376 314.181 64.568 310.309 64.568Z" fill="#3A4750"/>
<path d="M388.564 68.088V63.6L384.516 62.72V37.64L384.78 25.144L383.196 24.176L363.748 27.696V31.216L367.972 32.184L367.62 56.912C365.772 58.672 363.748 59.992 361.988 59.992C359.7 59.992 358.116 58.584 358.116 54.008V37.64L358.556 25.144L356.972 24.176L336.996 27.256V31.216L341.572 32.272L341.22 53.568C341.044 65.184 346.324 69.408 354.068 69.408C359.7 69.408 364.276 66.68 367.796 62.104L368.148 69.056L388.564 68.088Z" fill="#3A4750"/>
<path d="M408.8 69.408C421.648 69.408 429.832 64.304 429.832 53.92C429.832 46.968 426.488 42.216 418.304 40.016L413.376 38.696C407.304 37.024 406.336 35.264 406.336 33.416C406.336 30.424 408.888 28.928 412.232 28.928C414.08 28.928 415.4 29.104 416.544 29.368L418.48 37.2H426.576L427.28 27.256C422.44 24.968 418.04 23.736 412.672 23.736C400 23.736 393.048 30.16 393.048 38.96C393.048 45.824 396.744 50.752 403.696 52.6L408.712 53.92C414.608 55.504 415.84 57.264 415.84 59.64C415.84 62.984 413.2 64.216 408.8 64.216C406.512 64.216 404.488 63.776 402.464 62.984L401.056 53.832H393.048L392.608 65.096C397.36 68 402.728 69.408 408.8 69.408Z" fill="#3A4750"/>
</svg>
