<svg width="120" height="120" viewBox="0 0 120 120" fill="none" xmlns="http://www.w3.org/2000/svg">
<path d="M36.696 88C36.248 88 35.856 87.832 35.52 87.496C35.184 87.16 35.016 86.768 35.016 86.32L35.184 85.396L56.436 30.88C56.884 29.76 57.696 29.2 58.872 29.2H61.728C62.904 29.2 63.716 29.76 64.164 30.88L85.416 85.396L85.584 86.32C85.584 86.768 85.416 87.16 85.08 87.496C84.744 87.832 84.352 88 83.904 88H82.224C81.72 88 81.3 87.86 80.964 87.58C80.684 87.3 80.488 87.02 80.376 86.74L75.168 73.3H45.432L40.224 86.74C40.112 87.02 39.888 87.3 39.552 87.58C39.272 87.86 38.88 88 38.376 88H36.696ZM73.152 68.26L60.3 35.164L47.448 68.26H73.152Z" fill="black"/>
</svg>
